<svg id="Capa_1" enable-background="new 0 0 512 512" height="512" viewBox="0 0 512 512" width="512" xmlns="http://www.w3.org/2000/svg"><g><g><path d="m484.297 504.5h-456.594c-11.158 0-20.203-9.045-20.203-20.203v-20.203h497v20.203c0 11.158-9.045 20.203-20.203 20.203z" fill="#4a80aa"/></g><g><path d="m478.236 464.094v20.203c0 11.158-9.045 20.203-20.203 20.203h26.264c11.158 0 20.203-9.045 20.203-20.203v-20.203z" fill="#407093"/></g><g><path d="m478.236 464.094h-444.472v-292.948c0-11.158 9.045-20.203 20.203-20.203h404.065c11.158 0 20.203 9.045 20.203 20.203v292.948z" fill="#4a80aa"/></g><g><path d="m33.764 439.85h444.472v24.244h-444.472z" fill="#407093"/></g><g><path d="m131.75 117.608h248.5v379.821h-248.5z" fill="#80b4fb" transform="matrix(0 1 -1 0 563.518 51.518)"/></g><g><path d="m75.181 89.323h361.638v323.252h-361.638z" fill="#e4f6ff" transform="matrix(0 1 -1 0 506.949 -5.051)"/></g><g><path d="m394.392 70.13h23.234v361.638h-23.234z" fill="#b9e4ef"/></g><g><path d="m179.228 49.927h153.545v258.602h-153.545z" fill="#80b4fb" transform="matrix(0 1 -1 0 435.228 -76.772)"/></g><g><path d="m288.325 288.325h96.976v96.976h-96.976z" fill="#e278b1" transform="matrix(0 1 -1 0 673.626 0)"/></g><g><path d="m94.374 70.13v-42.427c0-11.158 9.045-20.203 20.203-20.203h282.846c11.158 0 20.203 9.045 20.203 20.203v42.427z" fill="#80b4fb"/></g><g><path d="m397.423 7.5h-23.234c11.158 0 20.203 9.045 20.203 20.203v42.427h23.234v-42.427c0-11.158-9.045-20.203-20.203-20.203z" fill="#61a2f9"/></g><g><path d="m286.305 157.004-98.996 98.996h197.992z" fill="#66b49d"/></g><g><path d="m205.492 177.207-78.793 78.793h157.586z" fill="#a2f4c1"/></g><g><path d="m504.5 456.59h-18.76v-285.44c0-15.279-12.431-27.71-27.71-27.71h-32.9v-8.94c0-4.142-3.358-7.5-7.5-7.5s-7.5 3.358-7.5 7.5v289.77h-308.256v-346.64h308.256v21.87c0 4.142 3.358 7.5 7.5 7.5s7.5-3.358 7.5-7.5l-.004-71.797c0-15.275-12.428-27.703-27.703-27.703h-282.846c-15.275 0-27.703 12.428-27.703 27.703v115.737h-32.904c-15.28 0-27.71 12.431-27.71 27.71v285.44h-18.76c-4.142 0-7.5 3.358-7.5 7.5v20.21c0 15.274 12.426 27.7 27.7 27.7h456.6c15.274 0 27.7-12.426 27.7-27.7v-20.21c0-4.142-3.358-7.5-7.5-7.5zm-79.37-265.82h13.28v233.5h-13.28zm-323.256-163.067c0-7.004 5.699-12.703 12.703-12.703h282.846c7.004 0 12.703 5.699 12.703 12.703v34.927h-308.252zm395.126 456.597c0 7.003-5.697 12.7-12.7 12.7h-456.6c-7.003 0-12.7-5.697-12.7-12.7v-12.71h401c4.142 0 7.5-3.358 7.5-7.5s-3.358-7.5-7.5-7.5h-374.74v-285.44c0-7.008 5.702-12.71 12.71-12.71h32.904v17.33h-20.784c-4.142 0-7.5 3.358-7.5 7.5v87.56c0 4.142 3.358 7.5 7.5 7.5s7.5-3.358 7.5-7.5v-80.06h13.284v233.5h-13.284v-118.44c0-4.142-3.358-7.5-7.5-7.5s-7.5 3.358-7.5 7.5v125.94c0 4.142 3.358 7.5 7.5 7.5h379.82c4.142 0 7.5-3.358 7.5-7.5v-248.5c0-4.142-3.358-7.5-7.5-7.5h-20.78v-17.33h32.9c7.009 0 12.71 5.702 12.71 12.71v285.44h-19.74c-4.142 0-7.5 3.358-7.5 7.5s3.358 7.5 7.5 7.5h46z"/><path d="m256 280.825h-129.301c-4.142 0-7.5 3.358-7.5 7.5s3.358 7.5 7.5 7.5h129.301c4.142 0 7.5-3.358 7.5-7.5s-3.358-7.5-7.5-7.5z"/><path d="m256 313.15h-129.301c-4.142 0-7.5 3.358-7.5 7.5s3.358 7.5 7.5 7.5h129.301c4.142 0 7.5-3.358 7.5-7.5s-3.358-7.5-7.5-7.5z"/><path d="m263.5 352.976c0-4.142-3.358-7.5-7.5-7.5h-129.301c-4.142 0-7.5 3.358-7.5 7.5s3.358 7.5 7.5 7.5h129.301c4.142 0 7.5-3.358 7.5-7.5z"/><path d="m126.699 377.801c-4.142 0-7.5 3.358-7.5 7.5s3.358 7.5 7.5 7.5h58.589c4.142 0 7.5-3.358 7.5-7.5s-3.358-7.5-7.5-7.5z"/><path d="m385.301 280.825h-96.976c-4.142 0-7.5 3.358-7.5 7.5v96.976c0 4.142 3.358 7.5 7.5 7.5h96.976c4.142 0 7.5-3.358 7.5-7.5v-96.976c0-4.142-3.358-7.5-7.5-7.5zm-7.5 96.976h-81.976v-81.976h81.976z"/><ellipse cx="377.219" cy="38.815" rx="8.081" ry="8.081" transform="matrix(.383 -.924 .924 .383 197.003 372.467)"/><circle cx="344.894" cy="38.815" r="8.081"/><ellipse cx="312.569" cy="38.815" rx="8.081" ry="8.081" transform="matrix(.383 -.924 .924 .383 157.094 312.737)"/><path d="m392.801 102.455c0-4.142-3.358-7.5-7.5-7.5h-258.602c-4.142 0-7.5 3.358-7.5 7.5v153.545c0 4.142 3.358 7.5 7.5 7.5h258.602c4.142 0 7.5-3.358 7.5-7.5zm-15 7.5v127.939l-86.198-86.198c-2.929-2.929-7.678-2.929-10.606 0l-45.205 45.205-24.997-24.997c-2.929-2.929-7.678-2.929-10.606 0l-65.989 65.989v-127.938zm-90.41 138.545-40.993-40.992 39.901-39.901 80.894 80.894h-79.802zm-21.213 0h-121.372l60.686-60.686z"/></g></g></svg>